<svg id="831f08c6-611e-4e67-b840-9c5593059b75" data-name="Layer 1" xmlns="http://www.w3.org/2000/svg" viewBox="0 0 989.45 174.16"><title>PHC_logo</title><path d="M494.73,174.16c273.22,0,494.72-39,494.72-87.08S768,0,494.73,0,0,39,0,87.08s221.5,87.08,494.73,87.08" fill="#457879"/><path d="M184.11,77c0,5-1.08,6.58-1.72,7-.9.65-3.08,1.43-8.38,1.43H146.37V69.83h30.87c2.73,0,4.62.5,5.48,1.44s1.39,3,1.39,5.7M177.8,61.65H137.28v50.23h9.09V93.56h31.08a26,26,0,0,0,7.86-.9,11.56,11.56,0,0,0,4.87-3,10.06,10.06,0,0,0,2.63-5.6,38.56,38.56,0,0,0,.6-7.42c0-5.7-1.21-9.56-3.69-11.8s-6.33-3.24-11.92-3.24" fill="#b7d98e"/><polygon points="249.12 81.94 208.92 81.94 208.92 61.65 199.83 61.65 199.83 111.88 208.92 111.88 208.92 90.05 249.12 90.05 249.12 111.88 258.21 111.88 258.21 61.65 249.12 61.65 249.12 81.94" fill="#b7d98e"/><path d="M280,93.24,293.17,70.9l13.3,22.34Zm8.35-31.59-29.66,50.23h10.65l6-10.54H311.2l6.11,10.53h10.51l-29.9-50.23Z" fill="#b7d98e"/><path d="M337.34,69.83h29.54c4.56,0,6.69.76,7.66,1.4,1.49,1,1.8,3.62,1.8,5.67,0,3.26-.63,5.46-1.82,6.37-.93.71-3,1.55-7.5,1.55H337.34Zm48.3,7.42c0-6.14-1.44-10.21-4.4-12.45s-7.12-3.15-13.17-3.15H328.25v50.23h9.09v-19h30.18c4.09,0,5.88.74,6.66,1.35,1,.8,1.53,2.71,1.53,5.52v12.09h9.09V97.47c0-3.46-1-5.94-3-7.38a10.41,10.41,0,0,0-1.43-.86,8,8,0,0,0,3.09-2.31c1.46-1.91,2.17-5.08,2.17-9.67" fill="#b7d98e"/><polygon points="432.51 100.53 405.42 61.64 393.54 61.65 393.54 111.88 402.63 111.88 402.63 73.56 429.25 111.88 435.59 111.88 462.28 73.55 462.28 111.88 471.37 111.88 471.37 61.65 459.65 61.66 432.51 100.53" fill="#b7d98e"/><path d="M493.12,93.24,506.26,70.9l13.3,22.34ZM511,61.65h-9.52l-29.67,50.23h10.66l6-10.54h35.84l6.1,10.53H540.9Z" fill="#b7d98e"/><path d="M889.46,69.94H919c4.56,0,6.68.77,7.66,1.41,1.49,1,1.8,3.62,1.8,5.67,0,3.26-.63,5.46-1.82,6.36-.93.71-3,1.55-7.5,1.55H889.46Zm44.47,20.27a10.41,10.41,0,0,0-1.43-.86A7.89,7.89,0,0,0,935.58,87c1.47-1.91,2.18-5.07,2.18-9.66,0-6.15-1.44-10.22-4.4-12.45s-7.12-3.15-13.17-3.15H880.36V112h9.1V93h30.18c4.08,0,5.88.74,6.66,1.35,1,.8,1.53,2.7,1.53,5.52V112h9.09V97.59c0-3.46-1-6-3-7.38" fill="#fff"/><path d="M623,96.58c0,3-.56,5.14-1.49,5.7s-3,1.22-7.82,1.22H592.3c-4.18,0-6.79-.78-7.56-2.25s-1.54-4.41-1.54-11.34V83.55c0-1.09,0-2.24.13-3.45s.24-2.9.45-4.92a5.09,5.09,0,0,1,1.38-3.32,4.57,4.57,0,0,1,2-1,14.34,14.34,0,0,1,4.21-.51l15.3-.35q3.44,0,6,.14c1.68.09,3.16.21,4.34.33,3.35.52,4.34,1,4.55,1.16a2.2,2.2,0,0,1,.75,1.5,29.4,29.4,0,0,1,.35,5.22v2.18H632.7V78.31a26,26,0,0,0-1.85-10.66,9.9,9.9,0,0,0-7.34-5.8,34.39,34.39,0,0,0-6.9-1h0l-6.67-.21H595.41l-5.06.48c-4.54,0-8.24.94-11,2.8A12.49,12.49,0,0,0,574,72.35c-.33,1.76-.6,3.22-.78,4.37a20.12,20.12,0,0,0-.31,3.27v8l.2,8.87c0,9.24,5,14.63,14.59,15.59l10.5.5,17.29-.29c7.43,0,12.16-1.33,14.47-4.08s3.28-7.18,3.28-13.9V92.47H623Z" fill="#fff"/><polygon points="650.25 90.53 689.5 90.53 689.5 81.46 650.25 81.46 650.25 70.31 690.97 70.31 690.97 61.16 640.18 61.16 640.18 112.37 691.47 112.37 691.47 103.29 650.25 103.29 650.25 90.53" fill="#fff"/><polygon points="750.98 100.49 710.86 61.18 698.32 61.16 698.32 112.37 708.38 112.37 708.38 72.85 748.62 112.37 761.04 112.37 761.04 61.16 750.98 61.16 750.98 100.49" fill="#fff"/><polygon points="762.7 70.31 786.3 70.31 786.3 112.36 796.36 112.36 796.36 70.31 820.09 70.31 820.09 61.16 762.7 61.16 762.7 70.31" fill="#fff"/><polygon points="831.88 90.53 871.13 90.53 871.13 81.46 831.88 81.46 831.88 70.31 872.61 70.31 872.61 61.16 821.82 61.16 821.82 112.37 873.1 112.37 873.1 103.29 831.88 103.29 831.88 90.53" fill="#fff"/><path d="M76.54,89c9.35-1.8,22.57-3.58,31.26-5.37-8.69-1.84-21.9-3.68-31.25-5.51-1.81-9.37-3.6-22.67-5.4-31.41-.06.26-.11.57-.17.84v-.14c0,.1,0,.19,0,.28C69.17,56.39,67.39,69,65.62,78.05,56.28,79.9,43,81.75,34.23,83.61,43,85.41,56.28,87.21,65.62,89c1.78,9,3.56,21.58,5.33,30.26l0,.27v-.13c.06.27.11.57.17.84,1.79-8.7,3.59-22,5.39-31.28" fill="#fff"/></svg>